<?xml version="1.0" encoding="utf-8"?>
<!-- Generator: Adobe Illustrator 12.0.1, SVG Export Plug-In . SVG Version: 6.00 Build 51448)  -->
<!DOCTYPE svg PUBLIC "-//W3C//DTD SVG 1.1//EN" "http://www.w3.org/Graphics/SVG/1.1/DTD/svg11.dtd" [
	<!ENTITY ns_svg "http://www.w3.org/2000/svg">
	<!ENTITY ns_xlink "http://www.w3.org/1999/xlink">
]>
<svg  version="1.1" id="Layer_1" xmlns="&ns_svg;" xmlns:xlink="&ns_xlink;" width="72.44" height="102.134"
	 viewBox="0 0 72.44 102.134" overflow="visible" enable-background="new 0 0 72.44 102.134" xml:space="preserve">
<path fill-rule="evenodd" clip-rule="evenodd" fill="#FFFFFF" d="M33.05,8.823c12.337-1.483,22.287,5.312,26.611,12.946
	c3.654,6.45,3.236,17.325,3.236,29.128c0,10.559,0.994,19.656-2.158,26.611c-3.819,8.427-12.813,15.463-24.453,15.463
	c-12.283,0-25.04-9.375-26.611-23.375c-0.632-5.63,0-12.461,0-19.06c0-6.3-0.699-13.1,0-19.059
	C10.977,20.384,20.603,10.318,33.05,8.823z M39.523,35.793c4.908-2.102,9.742-3.629,12.946-5.395c0.699-0.815-0.17-0.041-0.359,0
	c-1.281,0.277-6.509,1.442-11.867,2.877c-7.961,2.132-15.476,5.585-14.025-2.517c-1.704,2.132-3.656,4.015-3.236,8.271
	C26.704,43.06,34.214,38.066,39.523,35.793z M39.883,62.045c-1.6-0.512-3.869,1.398-3.596,3.956
	C38.577,65.773,39.669,64.348,39.883,62.045z M36.646,66.72c-1.555,0.01-2.374-0.926-3.956-0.719
	c-6.501,0.853-4.396,11.268,0.359,14.025c2.805-0.885,4.578-1.171,7.192,0c1.933-0.824,2.824-2.69,3.956-4.315
	c-2.574-1.703-3.452-6.428-0.359-8.271C41.851,64.923,38.909,66.706,36.646,66.72z"/>
<path fill-rule="evenodd" clip-rule="evenodd" fill="#7F7E7E" d="M36.287,66c-0.273-2.557,1.996-4.467,3.596-3.956
	C39.669,64.348,38.577,65.773,36.287,66z"/>
<path fill-rule="evenodd" clip-rule="evenodd" fill="#7F7E7E" d="M43.839,67.439c-3.093,1.843-2.215,6.568,0.359,8.271
	c-1.131,1.625-2.022,3.492-3.956,4.315c-2.614-1.171-4.388-0.885-7.192,0C28.295,77.269,26.189,66.853,32.691,66
	c1.582-0.207,2.4,0.729,3.956,0.719C38.909,66.706,41.851,64.923,43.839,67.439z"/>
<path fill-rule="evenodd" clip-rule="evenodd" fill="#7F7E7E" d="M63.617,12.418c3.934,4.843,7.54,10.923,8.271,18.7
	c1.045,11.118,0.347,24.179,0,35.242c-0.616,19.645-13.708,33.712-32.005,35.602c-16.46,1.699-32.205-9.405-36.68-22.296
	c-3.634-10.47-3.704-33.58-2.517-47.828c0.782-9.396,5.279-17.399,11.148-23.015C24.567-3.362,50.59-3.62,63.617,12.418z
	 M9.676,31.478c-0.699,5.959,0,12.759,0,19.059c0,6.598-0.632,13.43,0,19.06c1.572,13.999,14.328,23.375,26.611,23.375
	c11.641,0,20.634-7.036,24.453-15.463c3.151-6.955,2.158-16.052,2.158-26.611c0-11.803,0.417-22.678-3.236-29.128
	C55.337,14.135,45.388,7.34,33.05,8.823C20.603,10.318,10.977,20.384,9.676,31.478z"/>
<path fill-rule="evenodd" clip-rule="evenodd" fill="#7F7E7E" d="M22.981,39.03c-0.42-4.256,1.532-6.139,3.236-8.271
	c-1.451,8.102,6.064,4.649,14.025,2.517c5.358-1.435,10.586-2.6,11.867-2.877c0.189-0.041,1.058-0.815,0.359,0
	c-3.204,1.766-8.038,3.293-12.946,5.395C34.214,38.066,26.704,43.06,22.981,39.03z"/>
</svg>
