<?xml version="1.0" encoding="utf-8"?>
<!-- Generator: Adobe Illustrator 12.0.1, SVG Export Plug-In . SVG Version: 6.00 Build 51448)  -->
<!DOCTYPE svg PUBLIC "-//W3C//DTD SVG 1.1//EN" "http://www.w3.org/Graphics/SVG/1.1/DTD/svg11.dtd" [
	<!ENTITY ns_svg "http://www.w3.org/2000/svg">
	<!ENTITY ns_xlink "http://www.w3.org/1999/xlink">
]>
<svg  version="1.1" id="Layer_1" xmlns="&ns_svg;" xmlns:xlink="&ns_xlink;" width="201.439" height="284.013"
	 viewBox="0 0 201.439 284.013" overflow="visible" enable-background="new 0 0 201.439 284.013" xml:space="preserve">
<path fill-rule="evenodd" clip-rule="evenodd" fill="#DF1800" d="M100.906,183.534c-0.759-7.111,5.552-12.423,10-11
	C110.312,178.939,107.275,182.903,100.906,183.534z"/>
<path fill-rule="evenodd" clip-rule="evenodd" fill="#DF1800" d="M121.906,187.534c-8.601,5.125-6.159,18.264,1,23
	c-3.146,4.521-5.624,9.709-11,12c-7.27-3.256-12.201-2.462-20,0c-13.225-7.666-19.079-36.63-1-39c4.398-0.576,6.675,2.027,11,2
	C108.196,185.494,116.378,180.539,121.906,187.534z"/>
<path fill-rule="evenodd" clip-rule="evenodd" fill="#DF1800" d="M176.906,34.534c10.939,13.468,20.968,30.374,23,52
	c2.905,30.916,0.965,67.236,0,98c-1.714,54.626-38.119,93.747-89,99c-45.772,4.726-89.556-26.152-102-62
	c-10.106-29.114-10.299-93.38-7-133c2.176-26.129,14.68-48.385,31-64C68.317-9.348,140.682-10.065,176.906,34.534z M71.906,7.534
	c56.096-11.563,97.433,14.375,117,49C175.119,16.631,123.664-9.52,71.906,7.534z M26.906,87.534c-1.943,16.573,0,35.48,0,53
	c0,18.348-1.758,37.345,0,53c4.371,38.929,39.844,65,74,65c32.371,0,57.381-19.565,68-43c8.764-19.341,6-44.639,6-74
	c0-32.822,1.161-63.063-9-81c-12.026-21.229-39.692-40.123-74-36C57.293,28.693,30.523,56.684,26.906,87.534z M10.906,67.534
	c0.055,1.052,1.282,0.787,1-1c1.759-3.789,6.805-14.236,6-14C14.677,56.638,12.76,62.054,10.906,67.534z"/>
<path fill-rule="evenodd" clip-rule="evenodd" fill="#FFFFFF" d="M188.906,56.534c-19.567-34.625-60.904-60.563-117-49
	C123.664-9.52,175.119,16.631,188.906,56.534z"/>
<path fill-rule="evenodd" clip-rule="evenodd" fill="#FFFFFF" d="M17.906,52.534c0.805-0.236-4.241,10.211-6,14
	c0.282,1.787-0.945,2.052-1,1C12.76,62.054,14.677,56.638,17.906,52.534z"/>
<path fill-rule="evenodd" clip-rule="evenodd" fill="#DF1800" d="M63.906,108.534c-1.168-11.834,4.262-17.072,9-23
	c-4.034,22.53,16.862,12.929,39,7c14.9-3.99,29.439-7.229,33-8c0.527-0.114,2.942-2.268,1,0c-8.91,4.91-22.353,9.157-36,15
	C95.143,105.855,74.258,119.742,63.906,108.534z"/>
</svg>
