<?xml version="1.0" encoding="utf-8"?>
<!-- Generator: Adobe Illustrator 12.0.1, SVG Export Plug-In . SVG Version: 6.00 Build 51448)  -->
<!DOCTYPE svg PUBLIC "-//W3C//DTD SVG 1.1//EN" "http://www.w3.org/Graphics/SVG/1.1/DTD/svg11.dtd" [
	<!ENTITY ns_svg "http://www.w3.org/2000/svg">
	<!ENTITY ns_xlink "http://www.w3.org/1999/xlink">
]>
<svg  version="1.1" id="Layer_1" xmlns="&ns_svg;" xmlns:xlink="&ns_xlink;" width="41.696" height="60.082"
	 viewBox="0 0 41.696 60.082" overflow="visible" enable-background="new 0 0 41.696 60.082" xml:space="preserve">
<rect x="0.5" y="0.5" fill-rule="evenodd" clip-rule="evenodd" fill="#010101" stroke="#FFFFFF" width="40.696" height="59.082"/>
<path fill-rule="evenodd" clip-rule="evenodd" fill="#FFFFFF" d="M36.422,3.815c0,7.66,0,15.32,0,22.98c-10.364,0-20.727,0-31.091,0
	c0.225-7.548-0.45-15.996,0.338-22.98C15.92,3.815,26.171,3.815,36.422,3.815z"/>
<path fill-rule="evenodd" clip-rule="evenodd" fill="#FFFFFF" d="M19.649,29.499c5.615-0.67,10.241,3.302,11.152,7.097
	c3.219,13.402-17.404,17.997-19.938,5.407C9.308,34.28,13.865,30.189,19.649,29.499z M15.932,38.624
	c-0.862,6.974,9.046,7.796,9.8,1.689c0.448-3.626-1.289-6.888-6.421-5.407C16.944,35.589,16.1,37.264,15.932,38.624z"/>
<path fill-rule="evenodd" clip-rule="evenodd" d="M19.32,34.906c5.132-1.481,6.869,1.781,6.421,5.407
	c-0.754,6.106-10.662,5.284-9.8-1.689C16.108,37.264,16.953,35.589,19.32,34.906z"/>
</svg>
