<?xml version="1.0" encoding="utf-8"?>
<!-- Generator: Adobe Illustrator 12.0.1, SVG Export Plug-In . SVG Version: 6.00 Build 51448)  -->
<!DOCTYPE svg PUBLIC "-//W3C//DTD SVG 1.1//EN" "http://www.w3.org/Graphics/SVG/1.1/DTD/svg11.dtd" [
	<!ENTITY ns_svg "http://www.w3.org/2000/svg">
	<!ENTITY ns_xlink "http://www.w3.org/1999/xlink">
]>
<svg  version="1.1" id="Layer_1" xmlns="&ns_svg;" xmlns:xlink="&ns_xlink;" width="40.696" height="59.082"
	 viewBox="0 0 40.696 59.082" overflow="visible" enable-background="new 0 0 40.696 59.082" xml:space="preserve">
<rect fill-rule="evenodd" clip-rule="evenodd" fill="#BCBEC0" width="40.696" height="59.082"/>
<path fill-rule="evenodd" clip-rule="evenodd" fill="#FFFFFF" d="M35.922,3.315c0,7.66,0,15.32,0,22.98c-10.364,0-20.727,0-31.091,0
	c0.225-7.548-0.45-15.996,0.338-22.98C15.42,3.315,25.671,3.315,35.922,3.315z"/>
<path fill-rule="evenodd" clip-rule="evenodd" fill="#FFFFFF" d="M19.149,28.999c5.615-0.67,10.241,3.302,11.152,7.097
	c3.219,13.402-17.404,17.997-19.938,5.407C8.808,33.78,13.365,29.689,19.149,28.999z M15.432,38.124
	c-0.862,6.974,9.046,7.796,9.8,1.689c0.448-3.626-1.289-6.888-6.421-5.407C16.444,35.089,15.6,36.764,15.432,38.124z"/>
<path fill-rule="evenodd" clip-rule="evenodd" fill="#BCBEC0" d="M18.82,34.406c5.132-1.481,6.869,1.781,6.421,5.407
	c-0.754,6.106-10.662,5.284-9.8-1.689C15.608,36.764,16.453,35.089,18.82,34.406z"/>
</svg>
