<?xml version="1.0" encoding="utf-8"?>
<!-- Generator: Adobe Illustrator 12.0.1, SVG Export Plug-In . SVG Version: 6.00 Build 51448)  -->
<!DOCTYPE svg PUBLIC "-//W3C//DTD SVG 1.1//EN" "http://www.w3.org/Graphics/SVG/1.1/DTD/svg11.dtd" [
	<!ENTITY ns_svg "http://www.w3.org/2000/svg">
	<!ENTITY ns_xlink "http://www.w3.org/1999/xlink">
]>
<svg  version="1.1" id="Layer_1" xmlns="&ns_svg;" xmlns:xlink="&ns_xlink;" width="52.208" height="28.885"
	 viewBox="0 0 52.208 28.885" overflow="visible" enable-background="new 0 0 52.208 28.885" xml:space="preserve">
<path fill="#DD2226" d="M33.181,0.133c-2.559-0.818-6.188,2.236-5.75,6.325C31.091,6.095,32.837,3.816,33.181,0.133z"/>
<path fill="#DD2226" d="M37.125,11.309c0.512-1.006,1.281-1.896,2.38-2.55c-3.18-4.022-7.883-1.172-11.5-1.15
	c-2.487,0.016-3.797-1.481-6.325-1.15c-5.414,0.71-7.089,5.567-6.384,10.681c4.309-0.825,9.609-2.623,15.032-4.076
	C32.642,12.445,34.941,11.854,37.125,11.309z"/>
<path fill="#DD2226" d="M17.146,23.043c1.252,2.49,3.019,4.629,5.109,5.842c4.485-1.416,7.321-1.873,11.5,0
	c3.092-1.318,4.516-4.302,6.324-6.9c-2.304-1.524-3.756-4.563-3.722-7.459c-2.377,0.923-4.825,1.893-7.288,2.947
	C25.47,19.014,21.293,21.267,17.146,23.043z"/>
<path fill="#DD2226" d="M51.111,8.026c-1.691,0.366-7.306,1.615-13.985,3.283c-0.502,0.988-0.755,2.088-0.768,3.217
	c5.919-2.298,11.378-4.293,15.382-6.5C52.964,6.598,51.443,7.954,51.111,8.026z"/>
<path fill="#DD2226" d="M5.769,8.656c-2.984,3.733-6.403,7.031-5.667,14.484c3.995,4.325,10.481,2.713,17.045-0.098
	c-0.931-1.852-1.573-3.896-1.85-5.903C8.53,18.436,4.216,17.324,5.769,8.656z"/>
</svg>
