<?xml version="1.0" encoding="utf-8"?>
<!-- Generator: Adobe Illustrator 12.0.1, SVG Export Plug-In . SVG Version: 6.00 Build 51448)  -->
<!DOCTYPE svg PUBLIC "-//W3C//DTD SVG 1.1//EN" "http://www.w3.org/Graphics/SVG/1.1/DTD/svg11.dtd" [
	<!ENTITY ns_svg "http://www.w3.org/2000/svg">
	<!ENTITY ns_xlink "http://www.w3.org/1999/xlink">
]>
<svg  version="1.1" id="Layer_1" xmlns="&ns_svg;" xmlns:xlink="&ns_xlink;" width="82.922" height="76.211"
	 viewBox="0 0 82.922 76.211" overflow="visible" enable-background="new 0 0 82.922 76.211" xml:space="preserve">
<path fill-rule="evenodd" clip-rule="evenodd" fill="#0071BC" d="M45.419,9.563c-2.933,1.572-4.722,4.31-7.428,7.016
	c-1.603,1.603-9.477,9.707-11.555,3.301c-1.471-4.529,13.971-17.74,16.507-19.397c4.619-3.017,12.954,8.932,16.095,12.381
	c1.236,1.357,7.096,7.258,1.651,9.079c-4.079,1.364-6.992-3.69-8.667-5.364C49.227,13.782,46.981,12.48,45.419,9.563z"/>
<path fill-rule="evenodd" clip-rule="evenodd" fill="#0071BC" d="M73.069,2.959c4.522-0.563,8.541,1.708,9.492,5.778
	c3.29,14.072-17.04,14.129-17.332,2.889C65.106,6.95,67.833,3.612,73.069,2.959z"/>
<path fill-rule="evenodd" clip-rule="evenodd" fill="#0071BC" d="M61.927,25.246c1.063,2.31,0.115,6.159,0,8.667
	c7.536,0.859,26.906-1.79,18.158,8.253c-7.997-0.256-17.031,0.524-24.348-0.412C49.841,34.387,58.896,28.958,61.927,25.246z"/>
<path fill-rule="evenodd" clip-rule="evenodd" fill="#0071BC" d="M28.912,64.039c-5.763-9.76,12.011-8.402,18.571-11.143
	c-2.311-3.234-4.018-4.844-7.016-7.842c-1.949-1.948-6.859-4.65-6.19-8.666c0.205-1.229,2.148-4.066,4.54-3.302
	c4.293,1.372,7.005,6.592,11.144,10.73c3.814,3.814,10.066,7.883,9.904,11.556c-0.205,4.619-9.607,5.187-14.032,6.189
	C39.497,62.999,34.722,64.694,28.912,64.039z"/>
<path fill-rule="evenodd" clip-rule="evenodd" fill="#0071BC" d="M35.515,46.292c-7.765,7.163-14.88,14.88-23.11,23.111
	c-1.809,1.809-11.326,12.09-12.381,3.301c-0.398-3.32,4.448-6.511,6.603-8.666C14.15,56.515,23.39,47,29.737,40.515
	C32.178,41.926,34.104,43.853,35.515,46.292z"/>
</svg>
